<svg xmlns="http://www.w3.org/2000/svg" version="1.1" xmlns:xlink="http://www.w3.org/1999/xlink" xmlns:svgjs="http://svgjs.dev/svgjs" width="1500" height="1687" viewBox="0 0 1500 1687"><g transform="matrix(1,0,0,1,0.0002562226959526015,0)"><svg viewBox="0 0 320 360" data-background-color="#050816" preserveAspectRatio="xMidYMid meet" height="1687" width="1500" xmlns="http://www.w3.org/2000/svg" xmlns:xlink="http://www.w3.org/1999/xlink"><g id="tight-bounds" transform="matrix(1,0,0,1,0.00005466084189720277,0)"><svg viewBox="0 0 320 360" height="360" width="320"><g><svg></svg></g><g><svg viewBox="0 0 320 360" height="360" width="320"><g><path transform="translate(-119.39272,-98.31927) scale(5.58313,5.58313)" d="M36.7 23.5c0-0.2 0.1-0.4 0.3-0.4 0.2 0 0.4 0.1 0.4 0.4 0.1 0 0.3 0 0.4-0.1 0.4 0 0.8-0.1 1.1 0 0.3 0.1 0.5 0.1 0.8 0.2 0.3 0.1 0.5 0 0.7-0.1 0.4-0.1 0.7-0.3 1.1-0.4 0.2-0.1 0.3-0.1 0.5-0.1 0.2-0.1 0.4-0.1 0.7-0.2 0.5-0.1 1-0.2 1.4-0.4 0.4-0.2 0.8-0.2 1.2-0.3 0.2 0 0.3-0.1 0.5-0.2 0.1 0 0.1-0.1 0.2-0.2 0.2-0.1 0.3-0.2 0.5-0.1 0.1 0.1 0.3 0.1 0.4 0h0.1c0.6 0 1.2-0.1 1.9 0 0.1 0 0.2 0 0.2 0 0.3-0.2 0.7-0.2 1.1-0.2 0.1 0 0.3 0 0.4 0h0.1c0.4 0 0.8 0 1.1 0.1 0.3 0 0.5 0.1 0.8 0.2 0.3 0 0.5 0 0.8 0.1 0.2 0 0.4 0 0.6 0 0.1 0 0.2 0 0.2 0 0.4 0.1 0.8 0.1 1.2 0.1 0.3 0.1 0.6 0.2 1 0.2 0.1 0 0.2 0 0.3 0 0.1 0 0.2 0.1 0.3 0.1l0.1 0.1c0.4 0 0.7 0.2 1.1 0.2 0.1 0 0.3 0 0.4 0.1 0.3 0.2 0.7 0.3 1.1 0.3 0.2 0 0.3 0.1 0.4 0.2 0.3 0.1 0.5 0.2 0.8 0.3 0.2 0.1 0.4 0 0.6 0.1 0.3 0.1 0.7 0.2 1 0.5 0.2 0.2 0.4 0.2 0.7 0.4 0.1 0 0.2 0.1 0.3 0.2 0.3 0.2 0.6 0.4 0.9 0.5 0.1 0 0.2 0.1 0.3 0.1 0.3 0.2 0.6 0.5 1 0.7 0.2 0.1 0.3 0.2 0.5 0.3h0.1c0.3 0.3 0.7 0.5 1 0.8 0.3 0.3 0.5 0.5 0.9 0.7 0 0 0 0 0 0.1 0.1 0.2 0.2 0.3 0.4 0.4 0.2 0.1 0.3 0.2 0.4 0.3 0.3 0.2 0.6 0.4 0.8 0.6 0.1 0.1 0.2 0.2 0.4 0.4 0.1 0.1 0.2 0.2 0.3 0.2 0.4 0.1 0.6 0.4 0.9 0.7 0.2 0.2 0.5 0.5 0.7 0.7 0.1 0.1 0.2 0.3 0.3 0.5 0.2 0.6 0.5 1.2 0.8 1.7 0 0 0 0.1 0.1 0.2v0.1c0.2 0.2 0.3 0.5 0.5 0.7 0.1 0.1 0.1 0.2 0.2 0.3 0.2 0.3 0.3 0.7 0.5 1 0.3 0.5 0.5 1 0.7 1.5v0.1c0.1 0.2 0.2 0.4 0.3 0.7 0 0.2 0.2 0.4 0.3 0.7 0.1 0.5 0.4 1 0.5 1.6 0 0.1 0.1 0.2 0.1 0.4 0.1 0.3 0.2 0.6 0.3 0.9 0 0.1 0.1 0.2 0.2 0.3 0.2 0.2 0.2 0.4 0.2 0.6-0.1 0.4 0 0.8 0.1 1.2 0 0.1 0 0.2 0 0.4 0.1 0.4 0.2 0.9 0.2 1.3 0 0.1 0 0.3 0 0.4 0 0.3 0.1 0.6 0.3 0.9 0 0.1 0.1 0.1 0.1 0.1 0.1 0.1 0.2 0.3 0.3 0.4 0.1 0.1 0.1 0.1 0.2 0.2 0.2 0.2 0.3 0.4 0.3 0.7 0 0.1-0.1 0.3-0.1 0.4 0 0.1 0 0.3 0.1 0.4 0.1 0.1 0.1 0.2 0.1 0.3 0 0.1-0.1 0.2-0.2 0.2v0c-0.1 0.3-0.5 0.4-0.6 0.7-0.1 0.4-0.2 0.8-0.3 1.2-0.1 0.3-0.1 0.5-0.1 0.8 0 0.3-0.1 0.5-0.1 0.8-0.1 0.4-0.2 0.8-0.3 1.2 0 0.2-0.1 0.4-0.1 0.6 0.1 0.1 0.2 0.2 0.3 0.2 0.2 0.2 0.4 0.4 0.6 0.6 0.1 0.1 0.1 0.2 0 0.2-0.1 0.1-0.2 0.1-0.3 0.1-0.1-0.1-0.3-0.2-0.4-0.2-0.1-0.1-0.3-0.2-0.5-0.1 0 0.2-0.1 0.4-0.1 0.5-0.1 0.2-0.2 0.5-0.2 0.7-0.1 0.4-0.3 0.7-0.4 1.1-0.2 0.5-0.4 0.9-0.6 1.3-0.1 0.2-0.2 0.4-0.3 0.6v0c0 0.3-0.3 0.6-0.4 0.9-0.2 0.4-0.4 0.8-0.6 1.3-0.1 0.2-0.2 0.4-0.3 0.5-0.2 0.5-0.4 0.9-0.7 1.3-0.2 0.3-0.4 0.5-0.6 0.6-0.2 0.2-0.4 0.4-0.6 0.6-0.1 0.1-0.2 0.2-0.3 0.3-0.1 0.1-0.1 0.1-0.2 0.2-0.2 0.3-0.5 0.5-0.7 0.8-0.2 0.2-0.3 0.4-0.6 0.6-0.2 0.2-0.4 0.5-0.7 0.6-0.1 0.1-0.2 0.3-0.3 0.4-0.1 0.1-0.2 0.3-0.3 0.4 0 0.2 0.1 0.4 0.1 0.5 0 0.3-0.3 0.4-0.5 0.2-0.3-0.2-0.3-0.2-0.6 0-0.3 0.2-0.6 0.5-1 0.6-0.1 0-0.1 0.1-0.2 0.1-0.2 0.1-0.3 0.3-0.5 0.4-0.2 0.2-0.5 0.3-0.7 0.5-0.1 0.1-0.2 0.1-0.3 0.2-0.3 0.2-0.6 0.3-0.9 0.6-0.1 0.1-0.2 0.1-0.3 0.2 0 0.1 0 0.1 0 0.2 0 0.2-0.2 0.4-0.5 0.3-0.3-0.1-0.5 0-0.8 0-0.3 0.1-0.6 0.3-0.9 0.4-0.1 0-0.2 0.1-0.3 0.2-0.3 0.2-0.6 0.3-0.9 0.4-0.2 0-0.4 0.2-0.6 0.2-0.1 0-0.2 0.1-0.3 0.1h-0.1c-0.4 0.3-0.8 0.5-1.2 0.8-0.1 0-0.1 0.1-0.2 0.2-0.1 0.2-0.2 0.3-0.4 0.3-0.5 0-0.7 0.4-0.6 0.8 0 0.1 0.1 0.2 0.1 0.3 0.1 0.2 0 0.4-0.1 0.5-0.1 0.1-0.4 0.1-0.5-0.1-0.2-0.2-0.3-0.4-0.4-0.7-0.1-0.2-0.3-0.4-0.5-0.5-0.2-0.1-0.4-0.1-0.6 0-0.1 0-0.1 0.1-0.2 0.1-0.2 0.2-0.5 0.3-0.8 0.2-0.1 0-0.3 0-0.3 0.1-0.1 0.1-0.1 0.3 0 0.4 0.2 0.2 0.1 0.4 0.1 0.7 0 0.4-0.3 0.6-0.7 0.4-0.1-0.1-0.2-0.1-0.3-0.2-0.1 0-0.1-0.1-0.1-0.2-0.1-0.1-0.1-0.3-0.2-0.5-0.2 0.1-0.4 0.1-0.6 0.2-0.1 0-0.2 0.1-0.3 0.1-0.3 0-0.4 0-0.5-0.3-0.1-0.3-0.3-0.3-0.5-0.4-0.4-0.1-0.9-0.1-1.3-0.3h-0.1c-0.4-0.3-0.8-0.3-1.3-0.3-0.3 0-0.6 0.1-0.9 0.1-0.3 0-0.5 0.1-0.7 0.3-0.1 0.1-0.2 0.2-0.3 0.2-0.1-0.1-0.1-0.2-0.2-0.3v-0.1c0-0.1-0.1-0.2-0.2-0.1-0.2 0.1-0.4-0.1-0.6-0.2-0.1-0.1-0.3-0.3-0.3-0.5-0.1-0.1-0.2-0.2-0.3-0.2-0.2 0-0.5-0.1-0.7-0.1-0.1 0-0.2 0-0.2-0.1-0.1-0.1-0.2-0.1-0.4-0.1-0.1 0-0.1-0.1-0.2-0.1 0.2 0.2 0.3 0.4 0.4 0.6 0 0.1 0.1 0.1 0.1 0.2 0.1 0.2 0 0.3-0.3 0.3-0.2 0-0.2 0-0.3 0.1 0 0.2 0 0.3 0 0.5 0 0.1 0 0.2-0.2 0.3 0 0-0.1 0-0.1 0.1-0.1 0.1-0.1 0.2 0 0.3 0.3 0.2 0.5 0.3 0.8 0.4 0.3 0 0.3 0.2 0.4 0.4 0.1 0.2 0 0.3-0.1 0.5-0.2 0.2-0.4 0.4-0.6 0.6-0.3 0.1-0.5 0.4-0.8 0.4-0.2 0-0.4-0.1-0.5-0.3-0.1-0.5-0.1-0.9 0.1-1.4 0-0.1 0.1-0.2 0-0.3-0.9 0-0.9-0.2-0.9-0.3 0-0.2 0.1-0.3 0.1-0.5 0.1-0.2 0-0.3-0.3-0.4-0.1 0-0.2 0-0.3 0-0.1 0-0.1-0.1-0.3-0.1 0.2-0.1 0.3-0.1 0.5-0.2-0.1-0.4-0.2-0.7-0.5-0.9-0.1-0.1-0.2-0.2-0.2-0.4 0-0.3-0.2-0.5-0.3-0.7-0.2-0.3-0.6-0.4-0.9-0.4-0.3-0.1-0.5-0.1-0.8-0.2-0.3-0.1-0.6-0.4-0.9-0.5-0.1-0.1-0.2-0.2-0.4-0.3-0.4-0.2-0.7-0.5-1-0.8-0.2-0.1-0.3-0.3-0.5-0.4-0.2-0.2-0.3-0.4-0.5-0.5-0.2-0.2-0.4-0.4-0.7-0.6-0.3-0.2-0.5-0.5-0.8-0.8-0.2-0.3-0.5-0.5-0.8-0.7-0.1 0-0.2 0-0.3 0-0.1 0-0.2 0.1-0.3 0.1-0.3 0.1-0.5 0.3-0.8 0.4 0.1-0.1 0.1-0.1 0-0.3-0.1-0.1-0.2-0.2-0.3-0.2-0.2 0-0.4 0-0.6 0-0.4 0-0.8 0.1-1.2 0.1-0.3 0-0.7 0.1-1 0.2 0.1 0.2 0.1 0.3 0.2 0.5-0.2 0.1-0.4 0.1-0.6 0.1-0.1 0-0.3 0.1-0.4 0.2-0.1 0-0.1 0.1-0.2 0-0.2-0.1-0.4 0-0.6 0.1h-0.1c0 0 0-0.1 0.1-0.1 0.1-0.1 0.2-0.2 0.3-0.3 0.1-0.1 0.2-0.1 0.4-0.2-0.1-0.1-0.1-0.2-0.1-0.2-0.1-0.1-0.2-0.1-0.3 0-0.1 0.1-0.2 0.2-0.3 0.3-0.1 0.1-0.2 0.1-0.3 0-0.1-0.1-0.1-0.2 0-0.3 0-0.1 0.1-0.2 0.2-0.3 0.1-0.1 0.1-0.2 0.2-0.3-0.2-0.2-0.3-0.4-0.5-0.5-0.3-0.2-0.6-0.5-0.8-0.8-0.2-0.4-0.5-0.7-0.9-0.9-0.1-0.1-0.2-0.2-0.3-0.3-0.1-0.1-0.1-0.1-0.2-0.2-0.3 0.1-0.5 0.3-0.8 0.4-0.1 0-0.1 0.1-0.2 0.2-0.1 0.2-0.3 0.2-0.5 0.2-0.1 0-0.2-0.1-0.1-0.2 0.1-0.2 0.2-0.4 0.5-0.3 0 0 0.1 0 0.1-0.1 0.2-0.2 0.4-0.5 0.7-0.7-0.1-0.3-0.3-0.5-0.4-0.7-0.1-0.1-0.1-0.2-0.1-0.4 0-0.1 0-0.1-0.1-0.2 0 0-0.1 0-0.2 0.1-0.1 0.1-0.3 0.2-0.5 0 0-0.1 0-0.2 0.1-0.3l0.1-0.1c0.3-0.1 0.3-0.4 0.3-0.7v-0.1c-0.1-0.2-0.1-0.3 0.1-0.5 0.3-0.2 0.6-0.6 0.7-0.9 0.1-0.2 0.3-0.3 0.5-0.5 0.2-0.2 0.4-0.4 0.5-0.7h0.1c0.4 0.1 0.5-0.2 0.7-0.5 0-0.1 0-0.2 0.1-0.2 0.2-0.2 0.2-0.4 0.1-0.7 0-0.1-0.1-0.3-0.1-0.4 0-0.1 0-0.1-0.1-0.2-0.3-0.2-0.3-0.4 0-0.6 0.2-0.1 0.2-0.3 0.3-0.4 0.1-0.2 0.1-0.4 0.1-0.7-0.1-0.3-0.1-0.7-0.2-1-0.1-0.4-0.2-0.9-0.3-1.3 0-0.1 0-0.1 0-0.2 0-0.3 0-0.5-0.1-0.8-0.1-0.1-0.1-0.3-0.1-0.4-0.1-0.3-0.2-0.5-0.5-0.6-0.3-0.2-0.7-0.3-1-0.5-0.1-0.1-0.2 0-0.3 0.1-0.1 0.2-0.3 0.4-0.4 0.6-0.1 0.1-0.2 0.3-0.3 0.5-0.2 0.2-0.6 0.4-0.9 0.1-0.1-0.2-0.2-0.3 0-0.5 0.2-0.3 0.4-0.6 0.7-0.8 0.1-0.1 0.2-0.3 0.3-0.4 0.1-0.2 0.1-0.4 0.1-0.6-0.1-0.4-0.2-0.8-0.2-1.3 0-0.5 0-0.9 0.1-1.4 0.1-0.2 0.1-0.5 0.2-0.7 0-0.1 0.1-0.3 0.2-0.4 0.2-0.2 0.4-0.4 0.5-0.7 0.1-0.3 0.3-0.6 0.3-0.9 0-0.1 0.1-0.2 0.1-0.3 0-0.1 0.1-0.3 0.1-0.4-0.1-0.3 0-0.5 0.1-0.7 0.1-0.2 0.2-0.5 0.3-0.7 0.2-0.4 0.2-0.9 0.6-1.3 0.1-0.2 0.2-0.4 0.3-0.6 0.1-0.4 0.3-0.7 0.5-1 0.1-0.1 0.1-0.1 0.1-0.2 0.1-0.3 0.3-0.6 0.5-0.9 0.2-0.3 0.2-0.6 0.3-0.9 0-0.1 0-0.2 0.1-0.3 0.3-0.3 0.2-0.7 0.1-1.1-0.2-0.5-0.3-1-0.2-1.5 0-0.1 0-0.2 0.1-0.2 0.1-0.2 0.1-0.3 0.2-0.5v-0.1c0.2-0.2 0.4-0.5 0.7-0.6 0.4-0.2 0.8-0.3 1.3-0.4 0.4 0 0.8-0.2 1.1-0.6 0-0.1 0.1-0.1 0.2-0.2l0.1-0.1c0.1-0.2 0.2-0.3 0.3-0.4 0.2-0.2 0.4-0.5 0.6-0.7 0.2-0.2 0.4-0.5 0.7-0.8l0.1-0.1c0.2-0.2 0.4-0.4 0.6-0.5 0.2-0.2 0.4-0.4 0.6-0.6 0.2-0.2 0.3-0.4 0.5-0.6 0.2-0.1 0.4-0.3 0.6-0.5 0.2-0.2 0.4-0.4 0.5-0.5 0.2-0.2 0.5-0.4 0.7-0.5 0.2-0.1 0.4-0.2 0.5-0.5 0.1-0.3 0.2-0.5 0.3-0.8 0-0.2 0.1-0.4 0.2-0.6 0.1 0 0.2 0 0.4-0.1-0.1-0.1-0.2-0.1-0.2-0.2 0-0.1 0.1-0.2 0.1-0.2 0-0.1 0.1-0.2 0.1-0.3 0 0 0.1 0 0.1-0.1 0 0 0.1 0 0.1-0.1-0.2 0.1-0.3 0-0.4-0.1 0.1 0.1 0.2 0.1 0.4 0.2 0 0 0.1 0 0.1-0.1 0-0.1 0-0.2 0-0.2 0 0-0.1 0-0.2 0-0.1 0-0.2 0.1-0.3 0.1zM54 70.5c0-0.1-0.1-0.1-0.1-0.2-0.1-0.2 0-0.3 0.1-0.4 0.1-0.1 0.2-0.1 0.4-0.1 0.2 0.1 0.3 0.2 0.3 0.4 0 0.1 0 0.3 0 0.4 0.1 0.4 0.1 0.4 0.5 0.4 0.2 0 0.4 0 0.6 0 0.4-0.1 0.8-0.3 1.2-0.4 0.4-0.1 0.8-0.2 1.2-0.3 0.1 0 0.2 0 0.4 0 0.4 0.1 0.7 0 1-0.2 0.1-0.1 0.3-0.1 0.4-0.2 0.2-0.1 0.4-0.1 0.6-0.2 0.5-0.3 1-0.5 1.4-0.8 0.3-0.2 0.6-0.4 0.9-0.6 0.3-0.2 0.6-0.4 0.9-0.6 0.2-0.1 0.5-0.3 0.7-0.5 0.4-0.3 0.7-0.6 1.1-0.8 0.2-0.1 0.3-0.2 0.4-0.3 0.2-0.1 0.3-0.3 0.5-0.4 0.1-0.1 0.2-0.2 0.4-0.3 0.1-0.1 0.1-0.1 0.1-0.2 0.3-0.2 0.6-0.6 0.8-0.9 0.2-0.2 0.4-0.4 0.6-0.7 0.3-0.3 0.5-0.7 0.8-1.1 0.2-0.2 0.4-0.5 0.5-0.7 0.2-0.4 0.4-0.8 0.7-1.1v-0.1c0.2-0.4 0.4-0.8 0.6-1.2 0.3-0.5 0.5-1.1 0.8-1.6 0.1-0.2 0.2-0.4 0.2-0.6 0.2-0.4 0.3-0.8 0.4-1.2 0-0.1 0-0.1 0.1-0.2 0.3-0.6 0.5-1.2 0.6-1.9 0.1-0.4 0.2-0.8 0.3-1.2 0.2-0.6 0.2-1.1 0.3-1.7 0.1-0.4 0.1-0.9 0.1-1.3 0.1-0.6 0.1-1.3 0-1.9 0-0.5-0.1-1.1-0.1-1.6 0-0.5-0.1-0.9-0.2-1.4-0.1-0.5-0.2-0.9-0.3-1.4-0.2-0.4-0.3-0.8-0.4-1.3-0.1-0.4-0.3-0.7-0.3-1.1 0-0.3-0.1-0.6-0.4-0.7-0.3-0.1-0.5-0.2-0.8-0.4-0.6-0.4-0.9-0.9-0.8-1.5 0-0.3 0.1-0.7 0.2-1 0.1-0.3 0.2-0.6 0-0.8-0.1-0.3-0.3-0.5-0.4-0.7-0.2-0.3-0.3-0.5-0.5-0.7-0.2-0.4-0.4-0.8-0.7-1.1-0.4-0.5-0.7-1-1.2-1.4l-0.1-0.1c-0.3-0.4-0.6-0.8-1-1.1-0.2-0.2-0.4-0.4-0.6-0.5-0.1-0.1-0.2-0.2-0.4-0.3-0.3-0.2-0.6-0.3-0.8-0.5-0.3-0.3-0.7-0.5-1-0.7 0 0-0.1 0-0.1-0.1-0.4-0.2-0.7-0.3-1.1-0.5-0.4-0.2-0.8-0.3-1.2-0.3-0.1 0-0.1 0-0.2 0-0.1-0.1-0.3-0.1-0.4-0.1-0.1 0-0.1 0-0.2 0-0.2-0.1-0.5 0-0.7 0-0.4 0.1-0.8 0.1-1.2-0.1-0.5-0.2-0.9-0.4-1.3-0.6-0.3-0.2-0.5-0.4-0.8-0.6-0.6-0.5-1.2-1.1-1.9-1.6 0.1-0.5-0.1-0.6-0.5-0.6-0.2 0-0.4 0.1-0.6 0.2-0.1 0.1-0.1 0.1-0.2 0.2-0.3 0.2-0.5 0.5-0.8 0.7-0.5 0.3-0.7 0.2-1.1 0-0.1-0.1-0.2-0.2-0.3-0.3-0.2-0.2-0.4-0.5-0.5-0.7-0.2-0.4-0.6-0.4-1-0.4-0.2 0-0.5 0.1-0.7 0.1-0.4 0-0.8 0.2-1 0.5-0.2 0.3-0.4 0.6-0.7 0.9-0.1 0.1-0.3 0.2-0.4 0.4-0.2 0.2-0.4 0.2-0.6 0-0.1-0.1-0.2-0.1-0.3-0.2-0.1 0.1-0.2 0.2-0.2 0.3-0.1 0.2-0.2 0.4-0.3 0.7-0.1 0.3-0.3 0.6-0.5 0.8-0.1 0.1-0.1 0.1-0.2 0.2-0.1 0.2-0.4 0.3-0.6 0.3-0.2 0.2-0.4 0.5-0.5 0.7-0.1 0.2-0.2 0.4-0.3 0.7-0.1 0.1-0.1 0.3-0.2 0.4-0.1 0.2-0.1 0.3-0.1 0.5 0.1 0.3-0.1 0.4-0.4 0.5-0.2 0-0.2 0-0.3 0.2 0 0.3 0.1 0.5 0.2 0.8 0.1 0.1 0.2 0.3 0.2 0.4 0 0.2 0.1 0.3 0.3 0.4 0.1 0.1 0.2 0.2 0.3 0.2 0.1 0 0.1 0.1 0.2 0.1 0.1 0.1 0.2 0 0.2-0.1 0.1-0.3 0.2-0.6 0.2-0.9 0.1-0.4 0.1-0.7 0.2-1.1 0.1-0.2 0.2-0.3 0.3-0.4 0 0 0.1 0 0.2 0v0.1c-0.1 0.5-0.3 1.1-0.4 1.6-0.1 0.2-0.1 0.4-0.2 0.6 0 0.1-0.1 0.2-0.2 0.2-0.2 0.1-0.4 0.2-0.6 0.2-0.1 0-0.2 0-0.3 0-0.2-0.1-0.4-0.3-0.6-0.4-0.1-0.1-0.2-0.2-0.3-0.3-0.1-0.2-0.2-0.4-0.3-0.6-0.1-0.2-0.2-0.3-0.4-0.4-0.1-0.1-0.2-0.1-0.3-0.2-0.2-0.2-0.4-0.3-0.7-0.3-0.1 0-0.3 0-0.4 0-0.1 0-0.3 0.1-0.4 0.2-0.2 0.1-0.3 0.1-0.5 0-0.5-0.2-1-0.1-1.5 0.1-0.2 0.1-0.4 0.2-0.6 0.2-0.5 0-0.9 0-1.4 0-0.5 0-0.9-0.1-1.4-0.2-0.2 0-0.4 0-0.6 0-0.4 0.1-0.5 0.4-0.4 0.8 0.1 0.4 0.2 0.9 0.2 1.3 0 0.3 0 0.6 0 0.9 0 0.2 0 0.3 0 0.5 0 0.3-0.1 0.6-0.1 0.9-0.1 0.6-0.4 1.1-0.8 1.5-0.3 0.3-0.7 0.6-1.1 0.7-0.2 0.1-0.4 0.2-0.7 0.3-0.5 0.2-0.9 0.6-1.2 1.1-0.1 0.2-0.2 0.4-0.3 0.6-0.2 0.3-0.3 0.5-0.5 0.8-0.1 0.2-0.3 0.4-0.4 0.6-0.1 0.2-0.3 0.3-0.3 0.5-0.2 0.4-0.3 0.8-0.5 1.2-0.1 0.2-0.1 0.5-0.2 0.7-0.2 0.4-0.2 0.8-0.2 1.3 0 0.1 0 0.2 0 0.4 0 0.5-0.1 1.1-0.1 1.6 0 0.5 0 1 0.1 1.5 0 0.2 0 0.5 0 0.7 0 0.4 0.1 0.9 0.1 1.3 0 0.4 0 0.9 0.2 1.3v0.1c0.1 0.4 0.1 0.8 0.2 1.2 0 0.1 0 0.2 0.1 0.3 0.2 0.6 0.3 1.1 0.5 1.7 0.1 0.4 0.3 0.8 0.4 1.2 0.1 0.4 0.5 0.8 0.6 1.3v0c0.3 0.6 0.6 1.2 1 1.8 0.1 0.2 0.3 0.4 0.4 0.6 0.2 0.3 0.3 0.6 0.5 0.8 0.1 0.2 0.3 0.4 0.4 0.5 0.1 0.2 0.2 0.4 0.4 0.6 0.2 0.2 0.4 0.5 0.6 0.7 0.3 0.5 0.7 0.9 1.1 1.2 0.2 0.2 0.4 0.3 0.6 0.5 0.1 0.1 0.2 0.1 0.2 0.2 0.1 0.1 0.2 0.2 0.4 0.3 0.8 0.4 1.4 1 2.1 1.6 0.3 0.3 0.6 0.6 1 0.8 0.4 0.3 0.7 0.6 1.2 0.7 0 0 0.1 0 0.1 0.1 0.2 0.2 0.5 0.3 0.7 0.4 0.4 0.2 0.9 0.4 1.3 0.6 0.1 0.1 0.3 0.1 0.4 0.2 0.3 0.1 0.6 0.2 0.9 0.3 0.3 0.1 0.5 0.2 0.8 0.2h0.1c0.2 0.1 0.3 0.1 0.5 0 0.1 0 0.2 0 0.2 0.1 0 0.1 0.1 0.1 0.2 0.1 0.1 0 0.2 0 0.4 0 0.1-0.1 0.1-0.2 0.2-0.4 0.1 0.1 0.2 0.1 0.2 0.1 0.1 0.2 0.3 0.2 0.5 0.2h0.1c0.2 0 0.3 0 0.4-0.1 0-0.1 0.2-0.1 0.3-0.1 0.3 0.1 0.6 0.1 0.9 0.2 0.2 0.1 0.5 0.1 0.6-0.1 0.1-0.1 0.2-0.2 0.4-0.1 0.2 0.1 0.3 0.1 0.5 0 0.1 0 0.2 0 0.2 0 0.3 0.1 0.5 0.1 0.8 0.2 0.4 0.1 0.4 0.1 0.7-0.2 0.1-0.1 0.3-0.1 0.4 0 0.1 0.2 0.1 0.3 0.1 0.5 0.1 0 0.1 0 0.2-0.1 0-0.2 0.1-0.2 0.3-0.3 0.1 0.1 0.1 0.1 0.2 0.1 0.2 0.2 0.3 0.2 0.4-0.1 0-0.1 0-0.2 0.1-0.2 0.1 0 0.2 0.1 0.2 0.1 0.1 0.2 0.3 0.3 0.4 0.5 0.2 0.2 0.5 0.2 0.6 0 0.1-0.1 0.2-0.1 0.3-0.1 0-0.1 0-0.2 0-0.3 0.3 0.2 0.2 0.2 0.1 0.2zM37.4 23.8c0.3 0.1 0.5 0.1 0.6-0.1-0.2 0.1-0.4-0.1-0.6 0.1z" fill="#4be62e" fill-rule="nonzero" stroke="none" stroke-width="1" stroke-linecap="butt" stroke-linejoin="miter" stroke-miterlimit="10" stroke-dasharray="" stroke-dashoffset="0" font-family="none" font-weight="none" font-size="none" text-anchor="none" style="mix-blend-mode: normal" data-fill-palette-color="tertiary"></path></g><g transform="matrix(1,0,0,1,64,153.738928707386)"><svg viewBox="0 0 192 52.52214258522797" height="52.52214258522797" width="192"><g><svg viewBox="0 0 272.78763584808667 74.62182867448152" height="52.52214258522797" width="192"><g><svg viewBox="0 0 192 74.62182867448152" height="74.62182867448152" width="192"><g id="textblocktransform"><svg viewBox="0 0 192 74.62182867448152" height="74.62182867448152" width="192" id="textblock"><g><svg viewBox="0 0 192 74.62182867448152" height="74.62182867448152" width="192"><path d="M191.55 16.005C190.648 8.259 188.075 6.106 188.075 6.106 180.177-1.872 170.321-0.153 161.466 0.994 145.832 1.04 130.262 2.744 114.664 3.658 81.926 3.798 48.907 1.505 16.331 7.159 13.271 8.894-3.175 7.5 0.544 16.996 1.519 20.947 5.075 25.331 4.967 28.956 5.455 29.591 6.132 28.135 6.42 29.049 7.431 31.512 9.083 30.35 10.437 31.806 8.551 35.695 9.905 38.932 11.195 42.325 8.921 43.208 6.005 42.79 4.696 45.718 4.561 47.84 3.83 47.437 3.027 47.344 2.44 47.282 1.257 47.515 1.456 48.181 2.133 50.458-0.774 51.775 1.05 54.005-0.205 56.422 1.916 58.513 1.627 61.132 1.591 61.658 1.79 62.107 2.106 62.231 3.505 62.898 1.465 64.199 1.682 65.609 16.033 75.244 31.604 68.583 46.308 73.013 50.126 69.915 47.256 74.113 48.781 73.463 49.972 72.704 50.839 75.848 52.184 74.067 52.392 73.556 52.076 72.347 52.816 72.58 53.204 72.704 53.547 72.673 53.601 71.96 53.682 70.891 52.969 71.557 52.78 71 54.829 68.18 54.323 74.888 56.246 74.609 56.156 73.788 55.596 72.611 56.742 72.766 57.88 71.588 57.916 70.612 58.927 73.261 58.963 73.834 59.143 74.237 59.432 74.516 62.591 71.635 65.732 75.539 69.045 74.237 71.076 72.812 73.026 75.012 75.084 74.47 75.806 74.036 76.537 73.261 77.232 74.563 85.744 74.841 94.815 73.68 102.885 74.609 124.449 72.874 147.493 75.322 170.23 73.029 175.592 72.146 181.161 70.891 186.387 69.884 186.387 69.884 190.621 67.127 190.621 54.734S191.523 43.89 191.659 34.021C191.794 24.153 192.426 23.751 191.523 16.005Z" opacity="1" fill="#4be62e" data-fill-palette-color="tertiary"></path><g transform="matrix(1,0,0,1,27.072000000000003,19.100000000000005)"><svg width="137.856" viewBox="2.5 -33.75 166.34 43.949999999999996" height="36.42182867448151" data-palette-color="#3a3836"><path d="M10.75-31.7Q17.55-31.7 21.53-29.83 25.5-27.95 27.55-25.65L27.55-25.65Q29.2-23.75 30.25-21.28 31.3-18.8 31.3-15.35L31.3-15.35Q31.3-12.8 30.15-10.03 29-7.25 27.15-5.55L27.15-5.55Q25.2-3.7 23.48-2.55 21.75-1.4 18.82-0.68 15.9 0.05 11.4 0.05L11.4 0.05Q8 0.05 5.25-0.73 2.5-1.5 2.5-3.35L2.5-3.35Q2.5-4.1 3.18-4.53 3.85-4.95 4.65-4.95L4.65-4.95Q5.1-4.95 5.25-4.9L5.25-4.9Q5.6-8.2 5.6-11.9L5.6-11.9Q5.6-16.05 5.4-18.78 5.2-21.5 4.85-24.2L4.85-24.2Q4.8-24.55 4.63-26.15 4.45-27.75 4.45-29.4L4.45-29.4Q4.45-30.45 5.5-31.18 6.55-31.9 7.65-31.9L7.65-31.9Q8.3-31.9 9.4-31.8L9.4-31.8Q10.3-31.7 10.75-31.7L10.75-31.7ZM10.1-4.65Q11.3-4.45 13.25-4.45L13.25-4.45Q16.55-4.45 19.5-5.83 22.45-7.2 24.25-9.68 26.05-12.15 26.05-15.4L26.05-15.4Q26.05-18.8 24.85-21.2 23.65-23.6 21.15-25.15L21.15-25.15Q19.3-26.3 16.6-26.83 13.9-27.35 10.1-27.35L10.1-27.35Q10.1-26.15 10.25-24.35L10.25-24.35Q10.25-23.75 10.35-22.25L10.35-22.25Q10.65-16.45 10.65-12.9L10.65-12.9Q10.65-7.75 10.1-4.65L10.1-4.65ZM35.35-10.6Q35.35-12.5 36.05-14.43 36.75-16.35 37.9-17.95L37.9-17.95Q39.05-19.55 41.55-20.58 44.05-21.6 46-21.6L46-21.6Q48-21.6 50.07-21.05 52.15-20.5 52.95-19.35L52.95-19.35Q54.8-16.75 54.8-14.25L54.8-14.25Q54.8-12.9 54.22-11.95 53.65-11 52.6-9.9L52.6-9.9Q51.75-9 49.92-8.7 48.1-8.4 46.3-8.4L46.3-8.4Q45.15-8.4 43.5-8.63 41.85-8.85 40.3-9.2L40.3-9.2Q40.4-8.2 40.8-7.25 41.2-6.3 41.75-5.8L41.75-5.8Q42.75-4.85 43.82-4.6 44.9-4.35 46.6-4.35L46.6-4.35Q48.4-4.35 49.95-4.95L49.95-4.95Q51.2-5.4 52-5.4L52-5.4Q52.95-5.4 53.45-4.83 53.95-4.25 53.95-3.35L53.95-3.35Q53.95-2.1 52.5-1.3 51.05-0.5 49.17-0.13 47.3 0.25 46.15 0.25L46.15 0.25Q43.8 0.25 41.6-0.6 39.4-1.45 37.95-3L37.95-3Q36.75-4.4 36.05-6.38 35.35-8.35 35.35-10.6L35.35-10.6ZM46.25-17.35Q45.15-17.35 44.05-16.93 42.95-16.5 42.25-15.75L42.25-15.75Q41.35-14.8 41.02-14.23 40.7-13.65 40.6-12.65L40.6-12.65Q41.85-12.25 45.8-12.25L45.8-12.25Q47.95-12.25 49.12-12.9 50.3-13.55 50.3-14.6L50.3-14.6Q50.3-15.65 49-16.5 47.7-17.35 46.25-17.35L46.25-17.35ZM67-2Q67-1.15 66.35-0.5 65.7 0.15 64.75 0.15L64.75 0.15Q63.25 0.15 62.55-0.43 61.85-1 61.85-2.55L61.85-2.55Q61.85-4.4 61.75-7.4L61.75-7.4Q61.65-9.9 61.65-11.6L61.65-11.6Q61.65-12.4 61.75-13.7L61.75-13.7Q61.85-14.9 61.85-15.5L61.85-15.5Q61.7-16.45 61.1-17.07 60.5-17.7 59.55-17.7L59.55-17.7Q59.1-17.7 58.8-18.13 58.5-18.55 58.5-19L58.5-19Q58.5-20.15 59.42-20.75 60.35-21.35 61.65-21.35L61.65-21.35Q64.35-21.35 65.4-18.15L65.4-18.15Q66.7-19.65 68.37-20.58 70.05-21.5 71.6-21.5L71.6-21.5Q73.45-21.5 74.97-20.5 76.5-19.5 76.5-17.8L76.5-17.8Q76.5-16.85 75.67-15.85 74.85-14.85 74-14.85L74-14.85Q73.55-14.85 73.22-15.08 72.9-15.3 72.45-15.75L72.45-15.75Q71.95-16.25 71.6-16.48 71.25-16.7 70.8-16.7L70.8-16.7Q70-16.7 69.3-16.45 68.6-16.2 68.35-15.85L68.35-15.85Q67.55-14.6 67.17-13.6 66.8-12.6 66.8-11.45L66.8-11.45Q66.8-10.6 66.75-10.1L66.75-10.1 66.7-7.25Q66.7-6.6 66.75-5.8 66.8-5 66.85-4.6L66.85-4.6Q67-3.25 67-2L67-2ZM86.84-2Q86.84-1.15 86.19-0.5 85.54 0.15 84.59 0.15L84.59 0.15Q83.09 0.15 82.39-0.43 81.69-1 81.69-2.55L81.69-2.55Q81.69-4.4 81.59-7.4L81.59-7.4Q81.49-9.9 81.49-11.6L81.49-11.6Q81.49-12.4 81.59-13.7L81.59-13.7Q81.69-14.9 81.69-15.5L81.69-15.5Q81.54-16.45 80.94-17.07 80.34-17.7 79.39-17.7L79.39-17.7Q78.94-17.7 78.64-18.13 78.34-18.55 78.34-19L78.34-19Q78.34-20.15 79.27-20.75 80.19-21.35 81.49-21.35L81.49-21.35Q84.19-21.35 85.24-18.15L85.24-18.15Q86.54-19.65 88.22-20.58 89.89-21.5 91.44-21.5L91.44-21.5Q93.29-21.5 94.82-20.5 96.34-19.5 96.34-17.8L96.34-17.8Q96.34-16.85 95.52-15.85 94.69-14.85 93.84-14.85L93.84-14.85Q93.39-14.85 93.07-15.08 92.74-15.3 92.29-15.75L92.29-15.75Q91.79-16.25 91.44-16.48 91.09-16.7 90.64-16.7L90.64-16.7Q89.84-16.7 89.14-16.45 88.44-16.2 88.19-15.85L88.19-15.85Q87.39-14.6 87.02-13.6 86.64-12.6 86.64-11.45L86.64-11.45Q86.64-10.6 86.59-10.1L86.59-10.1 86.54-7.25Q86.54-6.6 86.59-5.8 86.64-5 86.69-4.6L86.69-4.6Q86.84-3.25 86.84-2L86.84-2ZM104.74 10.2Q102.84 10.2 101.57 9.58 100.29 8.95 99.67 8.08 99.04 7.2 99.04 6.55L99.04 6.55Q99.04 5.7 99.64 5.23 100.24 4.75 101.09 4.75L101.09 4.75Q101.59 4.75 102.04 5.05 102.49 5.35 102.54 5.4L102.54 5.4Q102.89 5.65 103.24 5.83 103.59 6 103.99 6L103.99 6Q105.09 6 105.79 4.55 106.49 3.1 107.19-0.15L107.19-0.15Q104.94-3.45 103.44-6.75L103.44-6.75 102.29-9.4Q102.04-10 100.92-12.53 99.79-15.05 98.69-17L98.69-17Q97.99-18.4 97.99-18.9L97.99-18.9Q97.99-20.15 98.87-20.75 99.74-21.35 100.89-21.35L100.89-21.35Q101.69-21.35 102.12-21.03 102.54-20.7 103.09-19.85L103.09-19.85Q104.54-17.45 106.24-12.65L106.24-12.65Q107.24-9.9 107.84-8.47 108.44-7.05 109.29-5.6L109.29-5.6Q110.14-7.55 111.44-12.25L111.44-12.25Q112.24-14.95 112.77-16.57 113.29-18.2 113.94-19.55L113.94-19.55Q114.39-20.45 115.07-21 115.74-21.55 116.59-21.55L116.59-21.55Q117.44-21.55 118.42-20.93 119.39-20.3 119.39-19.45L119.39-19.45Q119.39-18.95 119.04-18.25L119.04-18.25Q117.09-13.75 115.62-9.78 114.14-5.8 112.79-1.05L112.79-1.05Q111.99 1.6 111.12 4 110.24 6.4 109.89 6.95L109.89 6.95Q108.89 8.35 107.64 9.28 106.39 10.2 104.74 10.2L104.74 10.2ZM140.49-16.7Q140.49-14.5 138.24-14.5L138.24-14.5Q137.49-14.5 136.99-14.85 136.49-15.2 135.89-15.9L135.89-15.9Q134.39-17.55 133.29-17.55L133.29-17.55Q131.84-17.55 130.46-16.7 129.09-15.85 128.24-14.3 127.39-12.75 127.39-10.85L127.39-10.85Q127.39-8.75 128.21-7.35 129.04-5.95 130.79-4.95L130.79-4.95Q131.44-4.6 132.31-4.4 133.19-4.2 133.84-4.2L133.84-4.2Q135.29-4.2 137.49-5.35L137.49-5.35Q138.29-5.75 138.84-5.95 139.39-6.15 139.99-6.15L139.99-6.15Q140.54-6.15 141.24-5.65 141.94-5.15 141.94-4.4L141.94-4.4Q141.94-2.9 140.54-1.88 139.14-0.85 137.11-0.33 135.09 0.2 133.24 0.2L133.24 0.2Q130.29 0.2 127.76-1.15 125.24-2.5 123.74-4.88 122.24-7.25 122.24-10.25L122.24-10.25Q122.24-13.45 123.69-16.1 125.14-18.75 127.59-20.25 130.04-21.75 132.94-21.75L132.94-21.75Q134.59-21.75 136.34-21.15 138.09-20.55 139.29-19.4 140.49-18.25 140.49-16.7L140.49-16.7ZM150.04 0.2Q149.04 0.2 148.34-0.15 147.64-0.5 147.49-0.9L147.49-0.9Q146.94-2.9 146.94-6.15L146.94-6.15Q146.94-12.15 147.14-15.9L147.14-15.9Q147.34-20.35 147.34-24.45L147.34-24.45Q147.34-25.65 147.04-27.95L147.04-27.95Q146.99-28.35 146.89-29.4 146.79-30.45 146.79-31.35L146.79-31.35Q146.79-32.45 147.56-33.1 148.34-33.75 149.59-33.75L149.59-33.75Q150.59-33.75 151.21-33.13 151.84-32.5 151.84-31.45L151.84-31.45Q151.84-29.85 151.94-26.95L151.94-26.95Q152.04-24.25 152.04-22.9L152.04-22.9Q152.04-21.4 151.94-18.9L151.94-18.9Q151.84-17.4 151.84-16.7L151.84-16.7Q151.84-14.5 151.89-13.05L151.89-13.05Q153.74-14.9 156.74-17.4 159.74-19.9 161.39-20.9L161.39-20.9Q163.14-21.95 163.69-21.95L163.69-21.95Q164.74-21.95 165.49-21.5 166.24-21.05 166.24-20.2L166.24-20.2Q166.24-19.35 165.99-18.85 165.74-18.35 165.09-17.85L165.09-17.85 158.64-13.15Q159.74-12.6 160.51-11.75 161.29-10.9 162.09-9.65L162.09-9.65Q163.79-6.85 164.81-5.55 165.84-4.25 166.69-4.25L166.69-4.25 167.94-4.3Q168.29-4.3 168.56-3.9 168.84-3.5 168.84-2.75L168.84-2.75Q168.84-1.6 167.71-0.9 166.59-0.2 165.19-0.2L165.19-0.2Q163.24-0.2 161.74-1.73 160.24-3.25 158.89-5.85L158.89-5.85Q156.94-9.55 155.04-10.25L155.04-10.25 151.84-7.65 152.04-2.2Q152.04-0.9 151.36-0.35 150.69 0.2 150.04 0.2L150.04 0.2Z" opacity="1" transform="matrix(1,0,0,1,0,0)" fill="#3a3836" class="wordmark-text-0" data-fill-palette-color="quaternary" id="text-0"></path></svg></g></svg></g></svg></g></svg></g><g transform="matrix(1,0,0,1,200.5983196261569,2.9351252611962693)"><svg viewBox="0 0 72.18931622192974 68.75157815208898" height="68.75157815208898" width="72.18931622192974"><g><svg xmlns:x="http://ns.adobe.com/Extensibility/1.0/" xmlns:i="http://ns.adobe.com/AdobeIllustrator/10.0/" xmlns:graph="http://ns.adobe.com/Graphs/1.0/" xmlns="http://www.w3.org/2000/svg" xmlns:xlink="http://www.w3.org/1999/xlink" version="1.1" x="0" y="0" viewBox="0.48978192380359814 2.9 98.9102180761964 94.19999999999999" enable-background="new 0 0 100 100" xml:space="preserve" height="68.75157815208898" width="72.18931622192974" class="icon-icon-0" data-fill-palette-color="accent" id="icon-0"><path d="M50 2.9c-4.1 0-8 0.8-11.8 2.4C22.5 11.7 15 29.8 21.5 45.5c4.8 11.6 16 19.1 28.5 19.1 4.1 0 8-0.8 11.8-2.4C77.5 55.7 85 37.7 78.5 21.9 73.7 10.4 62.5 2.9 50 2.9zM25.5 42.1c-1.9-5.4-1.9-11.2 0-16.7h6.6c-0.5 2.7-0.8 5.6-0.8 8.3 0 2.6 0.3 5.4 1 8.3H25.5zM36.3 33.7c0-2.9 0.3-5.7 0.9-8.3h10.3v16.7H37.4C36.7 39.3 36.3 36.4 36.3 33.7zM52.5 9.2c3.5 1.4 6.7 5.7 8.8 11.2h-8.8V9.2zM47.5 9.2v11.2h-8.8C40.8 14.9 44 10.6 47.5 9.2zM47.5 47.1v11.1c-3.3-1.5-6.4-5.9-8.5-11.1H47.5zM52.5 58.2V47.1H61C58.9 52.3 55.8 56.7 52.5 58.2zM52.5 42.1V25.4h10.3c0.6 2.7 0.9 5.5 0.9 8.3 0 2.7-0.4 5.5-1.1 8.3H52.5zM67.9 25.4h6.6c1.9 5.6 1.8 11.4 0 16.7h-6.8c0.7-2.9 1-5.8 1-8.3C68.7 31 68.4 28.1 67.9 25.4zM72.2 20.4h-5.6c-1.1-3.6-2.7-6.9-4.7-9.6C66.1 13 69.7 16.3 72.2 20.4zM38.1 10.8c-1.9 2.7-3.5 6-4.7 9.6h-5.5C30.3 16.3 33.8 13 38.1 10.8zM27.8 47.1h5.9c1.3 3.7 3 7.2 5.2 10.1C34.4 55 30.5 51.5 27.8 47.1zM61.1 57.1c2.1-2.9 3.9-6.4 5.1-10h5.9C69.6 51.3 65.8 54.9 61.1 57.1zM9.7 97.1c2.7 0 5.3-1.2 7.1-3.3 0.8-1 1.4-2.1 1.8-3.4h22.6c1.1 3.9 4.6 6.7 8.8 6.7 4.2 0 7.7-2.8 8.8-6.7h22.6c1.1 3.9 4.6 6.7 8.8 6.7 5.1 0 9.2-4.1 9.2-9.2 0-5.1-4.1-9.2-9.2-9.2-4.2 0-7.7 2.8-8.8 6.7H58.8c-0.9-3.1-3.3-5.5-6.3-6.3v-6.9c0-1.4-1.1-2.5-2.5-2.5s-2.5 1.1-2.5 2.5v6.9c-3.1 0.9-5.5 3.3-6.3 6.3H18.5c-0.9-3.3-3.7-5.9-7-6.5-3.3-0.6-6.7 0.6-8.9 3.2-1.8 2.1-2.5 4.9-1.9 7.6 0.7 3.6 3.6 6.6 7.2 7.2C8.5 97.1 9.1 97.1 9.7 97.1zM90.3 83.7c2.3 0 4.2 1.9 4.2 4.2 0 2.3-1.9 4.2-4.2 4.2-2.2 0-4-1.7-4.2-3.9 0-0.1 0-0.2 0-0.3s0-0.2 0-0.3C86.3 85.5 88.1 83.7 90.3 83.7zM50 83.7c2.3 0 4.2 1.9 4.2 4.2 0 2.3-1.9 4.2-4.2 4.2s-4.2-1.9-4.2-4.2C45.8 85.6 47.7 83.7 50 83.7zM5.6 88.8c-0.2-1.3 0.1-2.5 0.9-3.5 0.8-1 2-1.5 3.2-1.5 0.3 0 0.6 0 0.8 0.1 1.6 0.3 3 1.6 3.3 3.3 0.2 1.3-0.1 2.5-0.9 3.5-1 1.2-2.5 1.7-4.1 1.4C7.2 91.7 5.9 90.4 5.6 88.8z" fill="#4be62e" data-fill-palette-color="accent"></path></svg><g></g></g></svg></g></svg></g></svg></g></svg></g><defs></defs></svg><rect width="320" height="360" fill="none" stroke="none" visibility="hidden"></rect></g></svg></g></svg>